<?xml version="1.0" encoding="UTF-8"?> <svg xmlns="http://www.w3.org/2000/svg" id="Layer_2" data-name="Layer 2" viewBox="0 0 82.78 29.06"><g id="Layer_1-2" data-name="Layer 1"><g id="Layer_2-2" data-name="Layer 2"><g id="Layer_1-2" data-name="Layer 1-2"><g id="Layer_2-2" data-name="Layer 2-2"><g id="Layer_1-2-2" data-name="Layer 1-2-2"><path d="M3.14,10c-.15-.35-.5-.56-.88-.54-.37-.02-.72.2-.87.54-.08.18-.12.37-.12.56h2c0-.19-.05-.38-.13-.56M1.27,11.49c-.05.59.4,1.11.99,1.16,0,0,0,0,0,0h.16c.45.03.88-.15,1.18-.49l.79.77c-.51.56-1.24.87-2,.82C1.18,13.75,0,13.19,0,11.08c0-1.71.91-2.67,2.26-2.67,1.24-.02,2.27.97,2.29,2.21h0c0,.1,0,.19,0,.29v.58H1.27Z" fill="#fff" stroke-width="0"></path><rect x="5.37" y="10.22" width="3.09" height="1.21" fill="#fff" stroke-width="0"></rect><path d="M11.72,9.58c-.79,0-.89.64-.89,1.5s.1,1.5.89,1.5.88-.65.88-1.5-.1-1.5-.88-1.5M13.37,13.28c-.35.32-.8.48-1.27.47-.5.03-.98-.17-1.31-.55v.49h-1.26v-7.13h1.3v2.37c.32-.36.79-.55,1.27-.52.47-.01.92.15,1.27.47.45.64.64,1.43.53,2.2.11.77-.08,1.56-.53,2.2" fill="#fff" stroke-width="0"></path><path d="M16.38,13.69c-.78.06-1.46-.53-1.52-1.31v-5.82h1.3v5.56c0,.31.13.47.46.47h.5v1.1h-.74Z" fill="#fff" stroke-width="0"></path><path d="M20.92,13.69v-.48c-.34.35-.81.55-1.3.54-.46.02-.9-.15-1.23-.46-.38-.4-.57-.93-.53-1.48v-3.34h1.3v3.16c-.05.48.29.91.77.96.48.05.91-.29.96-.77h0c.01-.06.01-.13,0-.19v-3.16h1.31v5.22h-1.28Z" fill="#fff" stroke-width="0"></path><path d="M26.32,10c-.27-.48-.88-.65-1.36-.38-.16.09-.29.22-.38.38-.08.18-.12.37-.12.56h2c0-.19-.04-.38-.12-.56M24.48,11.45c-.05.59.39,1.12.98,1.17,0,0,.01,0,.02,0h.16c.45.03.88-.15,1.18-.49l.79.77c-.51.56-1.24.87-2,.82-1.23,0-2.42-.56-2.42-2.67,0-1.71.93-2.67,2.28-2.67,1.24-.02,2.26.96,2.28,2.2,0,0,0,0,0,0,0,.1,0,.19,0,.29v.58h-3.27Z" fill="#fff" stroke-width="0"></path><path d="M30.87,9.58c-.79,0-.89.64-.89,1.5s.1,1.5.89,1.5.88-.65.88-1.5-.1-1.5-.88-1.5M32.52,13.28c-.35.32-.8.48-1.27.47-.48.03-.94-.16-1.26-.52v2.38h-1.3v-7.14h1.3v.53c.33-.38.81-.58,1.31-.55.47-.01.92.15,1.27.47.45.64.64,1.43.53,2.2.11.77-.08,1.56-.53,2.2" fill="#fff" stroke-width="0"></path><path d="M36.88,9.89c-.17-.21-.42-.32-.69-.31-.48.01-.86.41-.85.89h0s0,.07,0,.11v3.15h-1.3v-5.26h1.27v.53c.34-.36.82-.57,1.32-.56.46-.03.91.15,1.23.49l-.98.96Z" fill="#fff" stroke-width="0"></path><path d="M38.37,8.47h1.31v5.22h-1.31v-5.22ZM38.37,6.47h1.32v1.11h-1.34l.02-1.11Z" fill="#fff" stroke-width="0"></path><path d="M43.92,13.69v-3.16c.05-.48-.29-.91-.77-.96-.48-.05-.91.29-.96.77h0c-.01.06-.01.13,0,.19v3.16h-1.31v-5.22h1.27v.53c.35-.35.82-.55,1.31-.54.46-.02.9.15,1.23.46.38.4.57.93.53,1.48v3.34l-1.3-.05Z" fill="#fff" stroke-width="0"></path><path d="M47.99,13.69c-.78.06-1.45-.52-1.51-1.3v-2.78h-.49v-1h.55v-1.53h1.3v1.54h.92v1h-.92v2.51c0,.3.14.47.45.47h.47v1.1h-.77Z" fill="#fff" stroke-width="0"></path><path d="M47.48,17.71l-.15.67h.47l-.7,3.33c-.02.13-.02.26,0,.39,0,.42.28.59.66.59.24,0,.47-.06.67-.19l.12-.55c-.1.06-.21.1-.32.11-.08.01-.15-.04-.16-.12,0,0,0,0,0,0v-.22l.85-4h-1.44ZM45.34,21.18c-.03.23-.12.45-.26.63-.14.15-.33.23-.53.23-.32,0-.49-.21-.49-.62,0-.74.54-1.74,1.37-1.74.08,0,.15.01.22.05l-.31,1.45ZM46.22,19.27c-.24-.13-.5-.2-.77-.2-1.3,0-2.35,1.05-2.35,2.35h0c-.07.61.37,1.17.99,1.24,0,0,0,0,.01,0h.18c.38,0,.74-.14,1-.41.08.25.33.41.59.38.24,0,.48-.06.68-.19l.11-.54c-.1.06-.21.09-.32.1-.11,0-.16-.05-.16-.15v-.19l.55-2.55-.51.16ZM42.22,19.14l.27-1.14-1,.23-.18.87h-.56l-.14.67h.56l-.34,1.59c0,.15,0,.3,0,.45,0,.55.4.84,1,.84.32,0,.63-.08.91-.24l.12-.61c-.21.11-.44.18-.68.19-.22,0-.36-.1-.36-.32v-.24l.36-1.66h.81l.14-.67-.91.04ZM38.82,19.14l-.15.67h.47l-.4,1.9c-.01.13-.01.26,0,.39,0,.42.28.59.66.59.21-.01.41-.08.59-.19l.12-.55c-.1.06-.21.09-.32.11-.08.01-.15-.04-.16-.12,0,0,0,0,0,0v-.22l.55-2.58h-1.36ZM40.46,18.08c0-.23-.17-.41-.4-.42h0c-.35.01-.63.29-.65.64-.01.22.16.41.38.42,0,0,0,0,0,0h0c.35,0,.64-.29.66-.64M36.71,22.62c-.06.27-.19.52-.38.72-.19.17-.44.26-.69.25-.36,0-.61-.15-.61-.43s.25-.44.87-.51c.32,0,.62-.11.88-.29l-.07.26ZM37.03,21.18c-.04.22-.13.43-.27.6-.13.16-.33.24-.53.24-.31,0-.52-.21-.52-.63,0-.79.52-1.71,1.33-1.71.1,0,.21.02.3.06l-.31,1.44ZM37.86,19.27c-.26-.14-.55-.21-.84-.2-1.28.03-2.29,1.09-2.27,2.37-.01.33.1.65.32.89-.55.13-.83.43-.83.85,0,.6.58,1,1.39,1,.59.03,1.16-.2,1.57-.62.31-.39.51-.86.58-1.36l.64-3-.56.07ZM32.99,19.14l-.14.67h.46l-.4,1.9c-.02.13-.02.26,0,.39,0,.42.28.59.66.59.24,0,.48-.06.68-.19l.11-.55c-.09.06-.2.1-.31.11-.11,0-.17-.06-.17-.15v-.19l.55-2.58h-1.44ZM34.64,18.08c0-.23-.19-.42-.42-.42h0c-.35.01-.63.29-.65.64-.01.22.16.41.38.42,0,0,0,0,0,0h0c.35-.01.64-.29.67-.64M31.05,21.18c-.04.23-.13.44-.27.63-.13.15-.32.23-.52.23-.32,0-.52-.22-.52-.63,0-.83.6-1.73,1.33-1.73.1,0,.2.01.29.05l-.31,1.45ZM31.32,17.71l-.14.67h.46l-.15.73h-.37c-1.3,0-2.35,1.05-2.35,2.35h0c-.03.63.45,1.18,1.09,1.21,0,0,0,0,0,0h.13c.38,0,.74-.14,1-.41.08.25.33.41.59.38.24,0,.48-.06.68-.19l.11-.54c-.1.06-.21.09-.32.1-.08.01-.15-.04-.16-.12,0,0,0,0,0,0h0c0-.06,0-.13,0-.19l.84-4h-1.41Z" fill="#fff" stroke-width="0"></path><path d="M68.78,7.77c-3.3.15-5.86,2.93-5.73,6.23,0,.39.03.77.1,1.15l10.47-4.41c-.97-1.79-2.81-2.93-4.84-3M68.99,20.27c2.16.11,4.19-1.07,5.17-3h2.83c-1.1,3.46-4.37,5.77-8,5.64-4.79.01-8.68-3.86-8.69-8.65,0,0,0-.01,0-.02v-.19c-.1-4.81,3.72-8.8,8.53-8.92,4.06.08,7.51,3,8.25,7l-13,5.5c1.08,1.66,2.93,2.66,4.91,2.64M68.57,0c-7.83.02-14.15,6.38-14.13,14.21,0,3.65,1.43,7.16,3.96,9.79l-1,5.06,4.46-2.43c6.88,3.73,15.48,1.17,19.21-5.71,3.73-6.88,1.17-15.48-5.71-19.21C73.27.58,70.94,0,68.57,0" fill="#fff" stroke-width="0"></path></g></g></g></g></g></svg> 