<?xml version="1.0" encoding="UTF-8"?> <svg xmlns="http://www.w3.org/2000/svg" viewBox="0 0 28.35 29.1"><g id="Layer_2" data-name="Layer 2"><g id="Layer_2-2" data-name="Layer 2"><path d="M14.38,7.77A6,6,0,0,0,8.65,14a5.86,5.86,0,0,0,.1,1.15l10.47-4.41a5.73,5.73,0,0,0-4.84-3m.16,12.5a5.5,5.5,0,0,0,5.17-3H22.6a8.09,8.09,0,0,1-8.06,5.66,8.68,8.68,0,0,1-8.69-8.86,8.75,8.75,0,0,1,8.53-8.92,8.57,8.57,0,0,1,8.26,7l-13,5.5a5.77,5.77,0,0,0,4.9,2.66M14.17,0A14.16,14.16,0,0,0,4,24L3,29.1l4.47-2.43A14.17,14.17,0,1,0,14.17,0" fill="#fff"></path></g></g></svg> 