<svg xmlns="http://www.w3.org/2000/svg" version="1.1" xmlns:xlink="http://www.w3.org/1999/xlink" xmlns:svgjs="http://svgjs.dev/svgjs" width="28.35" height="29.1"><svg id="SvgjsSvg1027" data-name="Layer 2" xmlns="http://www.w3.org/2000/svg" viewBox="0 0 28.35 29.1">
  <g id="SvgjsG1026" data-name="Layer 2">
    <path d="M14.38,7.77c-2.7,0-5.73,2.37-5.73,6.25,0,.43.03.79.1,1.15l10.47-4.41c-1.05-1.84-2.93-2.99-4.84-2.99M14.54,20.27c2.4,0,4.08-1.05,5.17-3.03h2.9c-1.32,3.62-4.15,5.66-8.06,5.66-4.87,0-8.69-3.88-8.69-8.85s3.82-8.92,8.53-8.92c3.69,0,7.27,2.57,8.26,6.98l-13,5.5c1.09,1.71,2.96,2.66,4.9,2.66M14.17,0C6.35,0,0,6.34,0,14.17c0,3.84,1.53,7.32,4.01,9.87l-.99,5.06,4.47-2.43c1.99,1.07,4.27,1.68,6.69,1.68,7.83,0,14.17-6.35,14.17-14.17S22,0,14.17,0" fill="#009ac7" stroke-width="0"></path>
  </g>
</svg><style>@media (prefers-color-scheme: light) { :root { filter: none; } }
@media (prefers-color-scheme: dark) { :root { filter: none; } }
</style></svg>